<svg width="86" height="89" viewBox="0 0 86 89" fill="none" xmlns="http://www.w3.org/2000/svg">
<path d="M42.9288 40.05C41.9905 40.05 41.0733 40.311 40.2931 40.8C39.5129 41.2889 38.9049 41.9839 38.5458 42.7971C38.1867 43.6102 38.0928 44.5049 38.2758 45.3681C38.4589 46.2314 38.9107 47.0243 39.5742 47.6466C40.2377 48.269 41.083 48.6928 42.0033 48.8645C42.9236 49.0362 43.8775 48.9481 44.7444 48.6113C45.6112 48.2745 46.3522 47.7041 46.8735 46.9723C47.3948 46.2405 47.673 45.3801 47.673 44.5C47.673 43.3198 47.1732 42.1879 46.2835 41.3534C45.3938 40.5188 44.1871 40.05 42.9288 40.05ZM79.0795 44.5L79.6013 43.877C86.006 35.6 87.5241 27.9905 84.0134 22.25C80.5027 16.5095 72.6274 13.973 61.9056 14.9965H61.0516C56.7344 5.785 50.3298 0 42.9288 0C35.5279 0 29.1233 5.785 24.8535 15.13L23.9521 14.9965C13.2303 13.973 5.35494 16.5095 1.84424 22.25C-1.66645 27.9905 -0.148311 35.6 6.25633 43.877L6.77819 44.5L6.25633 45.123C-0.148311 53.4 -1.66645 61.0095 1.84424 66.75C4.9754 71.645 11.0005 74.226 19.2079 74.226C20.6786 74.226 22.1968 74.226 23.9521 74.0035H24.8061C29.1233 83.215 35.5279 89 42.9288 89C50.3298 89 56.7344 83.215 61.0042 73.87H61.8581C63.4711 73.87 64.9893 74.0925 66.6023 74.0925C74.9995 74.0925 81.1669 71.5115 84.1558 66.6165C87.6665 60.876 86.1483 53.2665 79.7437 44.9895L79.0795 44.5ZM10.0517 26.7C11.2377 24.742 14.7959 23.674 19.54 23.674H21.8647C21.1212 26.4115 20.5666 29.1911 20.2042 31.9955C17.7873 33.7104 15.4896 35.5683 13.3252 37.558C9.71958 33.108 8.67586 28.925 10.0517 26.7ZM10.0517 62.3C8.67586 60.075 10.0517 55.892 13.2303 51.3085C15.3947 53.2982 17.6924 55.1561 20.1093 56.871C20.4718 59.6901 21.0264 62.4845 21.7698 65.237C15.887 65.593 11.4275 64.525 10.0517 62.3ZM42.9288 8.9C45.5856 8.9 48.7642 11.837 51.4684 17.0435C48.5699 17.8326 45.7192 18.7684 42.9288 19.847C40.1384 18.7684 37.2877 17.8326 34.3893 17.0435C37.0935 11.837 40.2721 8.9 42.9288 8.9ZM42.9288 80.1C40.2721 80.1 37.0935 77.163 34.3893 71.9565C37.2877 71.1674 40.1384 70.2316 42.9288 69.153C45.7192 70.2316 48.5699 71.1674 51.4684 71.9565C48.7642 77.163 45.5856 80.1 42.9288 80.1ZM56.8293 52.0205C54.647 53.4445 52.4172 54.7795 50.0451 56.07C47.673 57.3605 45.3009 58.5175 42.9288 59.541C40.5567 58.5027 38.1847 57.3457 35.8126 56.07C33.4405 54.7795 31.0684 53.4445 29.0284 52.0205C28.6963 49.6175 28.6963 47.1255 28.6963 44.5C28.6963 41.8745 28.6963 39.3825 29.0284 36.9795C31.2107 35.5555 33.4405 34.2205 35.8126 32.93C38.1847 31.6395 40.5567 30.4825 42.9288 29.459C45.3009 30.4973 47.673 31.6543 50.0451 32.93C52.4172 34.2205 54.7893 35.5555 56.8293 36.9795C56.8293 39.3825 57.1614 41.8745 57.1614 44.5C57.1614 47.1255 57.1614 49.6175 56.8293 52.0205V52.0205ZM75.806 62.3C74.4302 64.525 69.9707 65.6375 64.0879 65.237C64.8313 62.4845 65.3859 59.6901 65.7483 56.871C68.1653 55.1561 70.463 53.2982 72.6274 51.3085C76.1381 55.892 77.1818 60.075 75.806 62.3ZM72.6274 37.6915C70.463 35.7018 68.1653 33.8439 65.7483 32.129C65.3859 29.3246 64.8313 26.545 64.0879 23.8075H66.4125C71.1567 23.8075 74.62 24.8755 75.9009 26.8335C77.1818 28.7915 76.1381 33.108 72.6274 37.6915V37.6915Z" fill="#333333"/>
</svg>
